<svg width="229" height="40" viewBox="0 0 229 40" fill="none" xmlns="http://www.w3.org/2000/svg">
<g clip-path="url(#clip0_4078_140)">
<path d="M17.1196 0H23.263V30.9082H17.9045L17.2936 27.7731C15.8128 29.7169 13.6323 31.1747 10.4117 31.1747C4.39976 31.1747 0 26.715 0 19.5199C0 12.3249 4.39976 7.95141 10.3653 7.95141C13.4583 7.95141 15.6814 9.18585 17.1157 11.0434V0H17.1196ZM17.2047 19.6022C17.2047 15.7147 15.113 13.0224 11.761 13.0224C8.40903 13.0224 6.27101 15.6716 6.27101 19.5552C6.27101 23.4388 8.40516 26.088 11.761 26.088C15.1169 26.088 17.2047 23.4388 17.2047 19.5983V19.6022Z" fill="#261946"/>
<path d="M25.3594 8.21387H31.9358L37.3369 24.5517L42.653 8.21387H49.098L41.0408 30.9081H33.4166L25.3594 8.21387Z" fill="#261946"/>
<path d="M51.1484 0H57.2919V30.9082H51.1484V0Z" fill="#261946"/>
<path d="M84.8256 19.6023C84.8256 26.6681 80.4683 31.1708 74.4602 31.1708C71.3673 31.1708 69.1442 29.8894 67.7098 28.0357V39.7375H61.5664V8.21405H66.925L67.5358 11.3492C68.9741 9.40539 71.2397 7.94757 74.4177 7.94757C80.4722 7.90446 84.8294 12.4504 84.8294 19.6023H84.8256ZM78.5971 19.5161C78.5971 15.6756 76.4204 13.0264 73.0645 13.0264C69.7087 13.0264 67.6209 15.6756 67.6209 19.5161C67.6209 23.3566 69.7125 26.0959 73.0645 26.0959C76.4165 26.0959 78.5971 23.4036 78.5971 19.5161Z" fill="#261946"/>
<path d="M90.2781 23.7993C92.3697 23.7993 93.9819 25.3434 93.9819 27.5066C93.9819 29.6698 92.3697 31.1707 90.2781 31.1707C88.1864 31.1707 86.5742 29.6267 86.5742 27.5066C86.5742 25.3865 88.1439 23.7993 90.2781 23.7993Z" fill="#261946"/>
<path d="M97.3359 19.6494C97.3359 12.8071 101.604 8.12402 107.879 8.12402C114.154 8.12402 118.244 12.1409 118.422 18.8108C118.422 19.2967 118.38 19.8258 118.333 20.3548H101.082V20.6644C101.214 24.9478 103.87 27.9496 108.096 27.9496C111.231 27.9496 113.671 26.2724 114.413 23.3567H118.028C117.158 27.8595 113.497 31.171 108.359 31.171C101.693 31.171 97.3398 26.5349 97.3398 19.6455L97.3359 19.6494ZM114.583 17.353C114.235 13.4655 111.622 11.3062 107.918 11.3062C104.651 11.3062 101.643 13.6888 101.295 17.353H114.579H114.583Z" fill="#261946"/>
<path d="M142.38 18.368V30.9084H138.808V18.5913C138.808 13.9122 136.674 11.4394 132.796 11.4394C128.613 11.4394 126.088 14.5745 126.088 19.6534V30.9123H122.516V8.39051H125.609L126.088 11.4355C127.395 9.71509 129.66 8.12402 133.407 8.12402C138.417 8.12402 142.38 10.9064 142.38 18.368Z" fill="#261946"/>
<path d="M145.914 19.6494C145.914 12.8071 150.182 8.12402 156.457 8.12402C162.732 8.12402 166.823 12.1409 167 18.8108C167 19.2967 166.958 19.8258 166.911 20.3548H149.66V20.6644C149.792 24.9478 152.448 27.9496 156.674 27.9496C159.809 27.9496 162.249 26.2724 162.991 23.3567H166.606C165.736 27.8595 162.075 31.171 156.937 31.171C150.271 31.171 145.918 26.5349 145.918 19.6455L145.914 19.6494ZM163.165 17.353C162.817 13.4655 160.204 11.3062 156.5 11.3062C153.233 11.3062 150.225 13.6888 149.877 17.353H163.161H163.165Z" fill="#261946"/>
<path d="M182.379 8.39014V11.921H180.593C175.93 11.921 174.67 15.8517 174.67 19.4257V30.9041H171.098V8.39014H174.191L174.67 11.7917C175.714 10.0713 177.415 8.39014 181.378 8.39014H182.379Z" fill="#261946"/>
<path d="M202.204 8.39051H205.297V29.8033C205.297 36.2929 201.899 40.0041 194.278 40.0041C188.614 40.0041 184.651 37.3118 184.087 32.3662H187.744C188.355 35.1917 190.837 36.7828 194.541 36.7828C199.204 36.7828 201.729 34.5765 201.729 29.6739V27.0248C200.248 29.5838 197.851 31.1749 194.104 31.1749C187.961 31.1749 183.434 26.9817 183.434 19.6494C183.434 12.7601 187.965 8.12402 194.104 8.12402C197.851 8.12402 200.333 9.7582 201.729 12.2741L202.208 8.38659L202.204 8.39051ZM201.771 19.7357C201.771 14.79 198.81 11.3453 194.452 11.3453C190.095 11.3453 187.091 14.7469 187.091 19.6455C187.091 24.5441 190.053 27.9457 194.452 27.9457C198.852 27.9457 201.771 24.5441 201.771 19.7317V19.7357Z" fill="#261946"/>
<path d="M207.961 8.39015H211.75L218.589 26.3621L225.212 8.39015H229.001L218.767 34.7054C217.371 38.3265 216.544 39.7373 213.408 39.7373H209.14V36.4258H212.318C214.367 36.4258 214.715 35.8968 215.543 33.7766L216.633 31.0374L207.965 8.38623L207.961 8.39015Z" fill="#261946"/>
</g>
<defs>
<clipPath id="clip0_4078_140">
<rect width="229" height="40" fill="white"/>
</clipPath>
</defs>
</svg>
