<svg width="128" height="22" viewBox="0 0 128 22" fill="none" xmlns="http://www.w3.org/2000/svg">
<path d="M118.054 18.8579C118.054 18.8579 117.624 18.944 117.408 18.987C117.408 18.987 116.978 19.0301 116.806 19.0301C116.418 19.0301 116.246 18.987 116.16 18.944C116.031 18.944 116.031 18.8579 115.988 18.8148C115.945 18.7287 115.901 18.5565 115.901 18.3843C115.901 18.1259 115.901 17.8245 115.901 17.4801V7.87868H118.657V5.42451H115.901V2.19534C115.901 1.72173 115.514 1.33423 115.04 1.33423H113.146V5.42451H111.079V7.87868H113.146V18.169C113.146 19.4176 113.404 20.3218 113.964 20.8384C114.524 21.3551 115.299 21.6134 116.289 21.6134C116.763 21.6134 117.193 21.5704 117.581 21.4412C117.882 21.3551 118.183 21.269 118.356 21.269L118.786 21.1829V18.6856L118.14 18.8579H118.054Z" fill="#0F0F0F"/>
<path d="M42.3624 3.22821C42.3624 2.7546 41.9749 2.41016 41.5444 2.41016H38.186V6.80183H35.6458V9.51434H38.186V18.1685C38.186 18.9005 38.3152 19.5032 38.5735 19.9769C38.8319 20.4505 39.1763 20.7949 39.6069 21.0102C40.0374 21.2685 40.5541 21.4407 41.1569 21.5269C41.7166 21.613 42.3624 21.656 43.0083 21.656C43.4388 21.656 43.8263 21.656 44.2569 21.656C44.6874 21.656 45.0749 21.613 45.4194 21.5269V18.3838C45.4194 18.3838 45.0319 18.4699 44.8166 18.4699C44.6013 18.4699 44.386 18.4699 44.1277 18.4699C43.4388 18.4699 42.9652 18.3407 42.7069 18.1255C42.4916 17.9102 42.3624 17.4366 42.3624 16.7477V9.47128H45.4194V6.75877H42.3624V3.18516V3.22821Z" fill="#0F0F0F"/>
<path d="M126.579 18.8579C126.579 18.8579 126.149 18.944 125.933 18.987C125.933 18.987 125.503 19.0301 125.331 19.0301C124.943 19.0301 124.771 18.987 124.685 18.944C124.556 18.944 124.556 18.8579 124.513 18.8148C124.47 18.7287 124.426 18.5565 124.426 18.3843C124.426 18.1259 124.426 17.8245 124.426 17.4801V7.87868H127.182V5.42451H124.426V2.19534C124.426 1.72173 124.039 1.33423 123.565 1.33423H121.671V5.42451H119.604V7.87868H121.671V18.169C121.671 19.4176 121.929 20.3218 122.489 20.8384C123.049 21.3551 123.824 21.6134 124.814 21.6134C125.288 21.6134 125.718 21.5704 126.106 21.4412C126.407 21.3551 126.708 21.269 126.881 21.269L127.311 21.1829V18.6856L126.665 18.8579H126.579Z" fill="#0F0F0F"/>
<path d="M10.7165 13.8624H15.3666C15.2374 15.2833 14.7638 16.3597 13.9027 17.1347C13.0846 17.8666 11.879 18.2541 10.329 18.2541C9.29571 18.2541 8.39154 18.0388 7.65959 17.6513C6.92765 17.2638 6.32487 16.7472 5.89431 16.1013C5.4207 15.4555 5.11931 14.7235 4.90403 13.9485C4.68876 13.1305 4.60264 12.3124 4.60264 11.4513C4.60264 10.5902 4.68876 9.68604 4.90403 8.86798C5.11931 8.04993 5.4207 7.27493 5.89431 6.62909C6.36793 5.98326 6.92765 5.46659 7.65959 5.07909C8.39154 4.69159 9.25265 4.47631 10.329 4.47631C11.4485 4.47631 12.3957 4.7777 13.1707 5.33742C13.9457 5.89715 14.5054 6.75826 14.7638 7.8777H19.1985C19.0693 6.7152 18.7679 5.68187 18.2082 4.82075C17.6916 3.91659 17.0027 3.18464 16.1846 2.58186C15.3666 1.97908 14.4624 1.50547 13.429 1.20408C12.3957 0.902691 11.3624 0.730469 10.286 0.730469C8.69293 0.730469 7.22904 0.988803 5.93737 1.54853C4.6457 2.10825 3.56931 2.84019 2.66514 3.83047C1.76097 4.7777 1.11514 5.9402 0.641527 7.23187C0.167915 8.52354 -0.0473633 9.94438 -0.0473633 11.4513C-0.0473633 12.9583 0.167915 14.293 0.641527 15.5847C1.11514 16.8763 1.80403 17.9958 2.66514 18.943C3.56931 19.8902 4.6457 20.6222 5.93737 21.1819C7.22904 21.7416 8.69293 22 10.286 22C11.3193 22 12.3096 21.7847 13.3429 21.3972C14.3332 21.0097 15.2804 20.2777 16.0985 19.2444L16.5721 21.5263H19.4999V10.5472H10.6735V13.8624H10.7165Z" fill="#0F0F0F"/>
<path d="M33.2347 1.07642H29.8763V4.3917H34.0527V1.89447C34.0527 1.42086 33.6652 1.07642 33.2347 1.07642Z" fill="#0F0F0F"/>
<path d="M34.0527 6.80469H29.8763V21.4867H34.0527V6.80469Z" fill="#0F0F0F"/>
<path d="M27.1207 1.07642H22.9443V21.5278H27.1207V1.07642Z" fill="#0F0F0F"/>
<path d="M54.8055 6.62951C54.3319 6.80174 53.8583 6.97396 53.4278 7.27535C52.9972 7.53368 52.6097 7.87813 52.2653 8.26563C51.9208 8.65313 51.6625 9.08369 51.4903 9.51424H51.4472V6.80174H47.4861V21.4837H51.6625V14.8531C51.6625 14.2073 51.7486 13.5615 51.8778 13.0017C52.0069 12.442 52.2653 11.9254 52.5666 11.4948C52.9111 11.0642 53.2986 10.7198 53.8583 10.5045C54.418 10.2892 55.0208 10.117 55.7958 10.117C56.0542 10.117 56.3125 10.117 56.5708 10.117C56.8292 10.117 57.0875 10.1601 57.2597 10.2031V6.45729C56.9153 6.37118 56.6139 6.32812 56.3555 6.32812C55.8389 6.32812 55.3222 6.41424 54.8055 6.5434V6.62951Z" fill="#0F0F0F"/>
<path d="M70.8223 9.08351C70.2195 8.26545 69.4015 7.61962 68.4542 7.14601C67.507 6.6724 66.3445 6.41406 65.0528 6.41406C63.8903 6.41406 62.857 6.62934 61.8667 7.01684C60.9195 7.40434 60.1014 7.96407 59.4125 8.65296C58.7237 9.34185 58.207 10.1599 57.8195 11.1071C57.432 12.0544 57.2598 13.0877 57.2598 14.1641C57.2598 15.2405 57.432 16.3599 57.8195 17.3071C58.1639 18.2544 58.6806 19.0724 59.3695 19.7613C60.0584 20.4502 60.8334 20.9669 61.8237 21.3544C62.7709 21.7419 63.8473 21.9141 65.0528 21.9141C66.7751 21.9141 68.2389 21.5266 69.4876 20.7946C70.6931 20.0196 71.5973 18.771 72.2001 17.0057H68.4973C68.3681 17.4794 67.9806 17.9099 67.3778 18.2974C66.7751 18.6849 66.0431 18.9002 65.182 18.9002C64.0195 18.9002 63.1153 18.5988 62.4695 18.0391C61.8237 17.4363 61.4792 16.4891 61.4362 15.1974H72.4153C72.5015 14.078 72.4153 12.9585 72.114 11.9252C71.8556 10.8918 71.382 9.94462 70.7792 9.12657L70.8223 9.08351ZM61.4792 12.571C61.4792 12.2696 61.5653 11.9682 61.6514 11.6238C61.7806 11.2793 61.9528 10.9349 62.2112 10.5905C62.4695 10.2891 62.8139 9.98768 63.2876 9.7724C63.7181 9.55712 64.2778 9.42796 64.9667 9.42796C66.0001 9.42796 66.732 9.68629 67.2487 10.203C67.7653 10.7196 68.1098 11.4946 68.282 12.528H61.4792V12.571Z" fill="#0F0F0F"/>
<path d="M91.3167 0V10.2903L79.6917 0H77.0653V21.5278H80.0361V4.52084L91.3167 14.2945V21.5278H94.2876V0H91.3167Z" fill="#0F0F0F"/>
<path d="M99.9278 14.986C99.9278 15.5457 100.014 16.1054 100.186 16.6221C100.358 17.1387 100.574 17.6123 100.918 17.9998C101.219 18.3873 101.65 18.6887 102.124 18.9471C102.597 19.1623 103.2 19.2915 103.846 19.2915C104.793 19.2915 105.525 19.0762 106.085 18.6887C106.644 18.3012 107.075 17.6985 107.376 16.8804H110.39C110.218 17.6554 109.917 18.3873 109.529 18.9901C109.099 19.5929 108.625 20.1096 108.022 20.5401C107.463 20.9707 106.774 21.2721 106.085 21.4874C105.353 21.7026 104.621 21.7887 103.846 21.7887C102.683 21.7887 101.693 21.6165 100.832 21.229C99.9709 20.8415 99.1959 20.3249 98.5931 19.636C97.9903 18.9471 97.5167 18.1721 97.2153 17.2248C96.9139 16.2776 96.7417 15.2443 96.7417 14.1248C96.7417 13.0915 96.9139 12.1012 97.2153 11.1971C97.5598 10.2498 97.9903 9.47483 98.6361 8.74289C99.2389 8.054 99.9709 7.49427 100.832 7.06372C101.693 6.63316 102.683 6.46094 103.76 6.46094C104.922 6.46094 105.913 6.71927 106.817 7.19288C107.721 7.6665 108.496 8.31233 109.056 9.08733C109.658 9.86233 110.089 10.7665 110.347 11.7998C110.606 12.8332 110.692 13.8665 110.563 14.9429H99.8848L99.9278 14.986ZM107.376 12.8762C107.376 12.3596 107.247 11.8859 107.075 11.4123C106.903 10.9387 106.645 10.5512 106.343 10.2068C106.042 9.86233 105.654 9.56094 105.224 9.34567C104.793 9.13039 104.276 9.04428 103.76 9.04428C103.243 9.04428 102.683 9.13039 102.21 9.34567C101.736 9.56094 101.349 9.81928 101.047 10.1637C100.703 10.5082 100.444 10.8957 100.272 11.3693C100.057 11.8429 99.9709 12.3596 99.9709 12.8762H107.42H107.376Z" fill="#0F0F0F"/>
</svg>
